# Blender 3.3.1
# www.blender.org
o Cube
v 1.000000 -1.000000 -1.000000
v 1.000000 1.000000 -1.000000
v 1.000000 -1.000000 1.000000
v 1.000000 1.000000 1.000000
v -1.000000 -1.000000 -1.000000
v -1.000000 1.000000 -1.000000
v -1.000000 -1.000000 1.000000
v -1.000000 1.000000 1.000000
v 1.000000 1.031695 -1.000000
v 1.000000 1.031695 1.000000
v -1.000000 1.031695 -1.000000
v -1.000000 1.031695 1.000000
v 0.868535 1.163161 -0.868535
v 0.868535 1.163161 0.868535
v -0.868535 1.163161 -0.868535
v -0.868535 1.163161 0.868535
v 0.622291 1.635084 -0.622291
v 0.868535 1.533087 -0.868535
v 0.622291 1.635084 0.622291
v 0.868535 1.533087 0.868535
v -0.622291 1.635084 -0.622291
v -0.868535 1.533087 -0.868535
v -0.622291 1.635084 0.622291
v -0.868535 1.533087 0.868535
v -0.622291 1.649953 0.622291
v -0.467048 1.805197 0.467048
v -0.622291 1.649953 -0.622291
v -0.467048 1.805197 -0.467048
v 0.622291 1.649953 0.622291
v 0.467048 1.805197 0.467048
v 0.467048 1.805197 -0.467048
v 0.622291 1.649953 -0.622291
v 0.000000 2.643331 0.215585
v -0.000000 2.428704 0.431250
v -0.042059 2.643331 0.211443
v -0.084133 2.428704 0.422964
v -0.082501 2.643331 0.199175
v -0.165032 2.428704 0.398423
v -0.119773 2.643331 0.179253
v -0.239590 2.428704 0.358571
v -0.152442 2.643331 0.152442
v -0.304940 2.428704 0.304940
v -0.179253 2.643331 0.119773
v -0.358571 2.428704 0.239590
v -0.199175 2.643331 0.082501
v -0.398423 2.428704 0.165032
v -0.211443 2.643331 0.042059
v -0.422964 2.428704 0.084133
v -0.215585 2.643331 0.000000
v -0.431250 2.428704 0.000000
v -0.211443 2.643331 -0.042059
v -0.422964 2.428704 -0.084133
v -0.199175 2.643331 -0.082501
v -0.398423 2.428704 -0.165032
v -0.179253 2.643331 -0.119773
v -0.358571 2.428704 -0.239590
v -0.152442 2.643331 -0.152442
v -0.304940 2.428704 -0.304940
v -0.119773 2.643331 -0.179253
v -0.239590 2.428704 -0.358571
v -0.082501 2.643331 -0.199175
v -0.165032 2.428704 -0.398423
v -0.042059 2.643331 -0.211443
v -0.084133 2.428704 -0.422964
v 0.000000 2.643331 -0.215585
v -0.000000 2.428704 -0.431250
v 0.042059 2.643331 -0.211443
v 0.084133 2.428704 -0.422964
v 0.082501 2.643331 -0.199175
v 0.165032 2.428704 -0.398423
v 0.119773 2.643331 -0.179253
v 0.239590 2.428704 -0.358571
v 0.152442 2.643331 -0.152442
v 0.304940 2.428704 -0.304940
v 0.179253 2.643331 -0.119773
v 0.358571 2.428704 -0.239590
v 0.199175 2.643331 -0.082501
v 0.398423 2.428704 -0.165032
v 0.211443 2.643331 -0.042059
v 0.422964 2.428704 -0.084133
v 0.215585 2.643331 0.000000
v 0.431250 2.428704 0.000000
v 0.211443 2.643331 0.042059
v 0.422964 2.428704 0.084133
v 0.199175 2.643331 0.082501
v 0.398423 2.428704 0.165032
v 0.179253 2.643331 0.119773
v 0.358571 2.428704 0.239590
v 0.152442 2.643331 0.152442
v 0.304940 2.428704 0.304940
v 0.119773 2.643331 0.179253
v 0.239590 2.428704 0.358571
v 0.082501 2.643331 0.199175
v 0.165032 2.428704 0.398423
v 0.042059 2.643331 0.211443
v 0.084133 2.428704 0.422964
v 0.431250 1.805197 0.000000
v 0.422964 1.805197 -0.084133
v 0.422964 1.805197 0.084133
v 0.358571 1.805197 -0.239590
v 0.358571 1.805197 0.239590
v 0.304940 1.805197 -0.304940
v 0.398423 1.805197 -0.165032
v 0.398423 1.805197 0.165032
v 0.239590 1.805197 0.358571
v 0.084133 1.805197 0.422964
v 0.165032 1.805197 0.398423
v -0.084133 1.805197 0.422964
v -0.304940 1.805197 0.304940
v -0.239590 1.805197 0.358571
v -0.165032 1.805197 0.398423
v -0.000000 1.805197 0.431250
v 0.304940 1.805197 0.304940
v 0.239590 1.805197 -0.358571
v 0.084133 1.805197 -0.422964
v 0.165032 1.805197 -0.398423
v -0.084133 1.805197 -0.422964
v -0.239590 1.805197 -0.358571
v -0.165032 1.805197 -0.398423
v -0.000000 1.805197 -0.431250
v -0.358571 1.805197 -0.239590
v -0.358571 1.805197 0.239590
v -0.431250 1.805197 0.000000
v -0.422964 1.805197 -0.084133
v -0.422964 1.805197 0.084133
v -0.398423 1.805197 -0.165032
v -0.398423 1.805197 0.165032
v -0.304940 1.805197 -0.304940
vn 1.0000 -0.0000 -0.0000
vn -0.0000 -0.0000 1.0000
vn -1.0000 -0.0000 -0.0000
vn -0.0000 -0.0000 -1.0000
vn -0.0000 -1.0000 -0.0000
vn -0.0000 0.7071 0.7071
vn -0.7071 0.7071 -0.0000
vn 0.7071 0.7071 -0.0000
vn -0.0000 0.7071 -0.7071
vn -0.0000 1.0000 -0.0000
vn 0.3827 0.9239 -0.0000
vn -0.0000 0.9239 0.3827
vn -0.3827 0.9239 -0.0000
vn -0.0000 0.9239 -0.3827
vn 0.0980 -0.0000 0.9952
vn -0.4714 -0.0000 0.8819
vn -0.6344 -0.0000 0.7730
vn -0.7730 -0.0000 0.6344
vn -0.8819 -0.0000 0.4714
vn -0.9569 -0.0000 0.2903
vn -0.9952 -0.0000 0.0980
vn -0.9952 -0.0000 -0.0980
vn -0.9569 -0.0000 -0.2903
vn -0.8819 -0.0000 -0.4714
vn -0.7730 -0.0000 -0.6344
vn -0.6344 -0.0000 -0.7730
vn -0.4714 -0.0000 -0.8819
vn -0.2903 -0.0000 -0.9569
vn -0.0980 -0.0000 -0.9952
vn 0.0980 -0.0000 -0.9952
vn 0.2903 -0.0000 -0.9569
vn 0.4714 -0.0000 -0.8819
vn 0.6344 -0.0000 -0.7730
vn 0.7730 -0.0000 -0.6344
vn 0.8819 -0.0000 -0.4714
vn 0.9569 -0.0000 -0.2903
vn 0.9952 -0.0000 -0.0980
vn 0.9952 -0.0000 0.0980
vn 0.9569 -0.0000 0.2903
vn 0.8819 -0.0000 0.4714
vn 0.7730 -0.0000 0.6344
vn 0.6344 -0.0000 0.7730
vn 0.4714 -0.0000 0.8819
vn 0.2903 -0.0000 0.9569
vn -0.0980 -0.0000 0.9952
vn -0.2903 -0.0000 0.9569
vn -0.0693 0.7071 0.7037
vn -0.2053 0.7071 0.6767
vn -0.3333 0.7071 0.6236
vn -0.4486 0.7071 0.5466
vn -0.5466 0.7071 0.4486
vn -0.6236 0.7071 0.3333
vn -0.6767 0.7071 0.2053
vn -0.7037 0.7071 0.0693
vn -0.7037 0.7071 -0.0693
vn -0.6767 0.7071 -0.2053
vn -0.6236 0.7071 -0.3333
vn -0.5466 0.7071 -0.4486
vn -0.4486 0.7071 -0.5466
vn -0.3333 0.7071 -0.6236
vn -0.2053 0.7071 -0.6767
vn -0.0693 0.7071 -0.7037
vn 0.0693 0.7071 -0.7037
vn 0.2053 0.7071 -0.6767
vn 0.3333 0.7071 -0.6236
vn 0.4486 0.7071 -0.5466
vn 0.5466 0.7071 -0.4486
vn 0.6236 0.7071 -0.3333
vn 0.6767 0.7071 -0.2053
vn 0.7037 0.7071 -0.0693
vn 0.7037 0.7071 0.0693
vn 0.6767 0.7071 0.2053
vn 0.6236 0.7071 0.3333
vn 0.5466 0.7071 0.4486
vn 0.4486 0.7071 0.5466
vn 0.3333 0.7071 0.6236
vn 0.2053 0.7071 0.6767
vn 0.0693 0.7071 0.7037
vt 0.499016 0.000000
vt 0.499016 1.000000
vt 0.249016 0.750000
vt 0.749016 1.000000
vt 0.749016 0.000000
vt 0.249016 0.500000
vt 0.499016 0.250000
vt 0.749016 0.250000
vt 0.499016 0.750000
vt 0.749016 0.750000
vt 0.499016 0.500000
vt 0.749016 0.500000
vt 0.749016 1.000000
vt 0.749016 0.000000
vt 0.999016 0.750000
vt 0.999016 0.500000
vt 0.749016 0.250000
vt 0.749016 0.750000
vt 0.749016 0.500000
vt 0.982583 0.733567
vt 0.982583 0.516433
vt 0.765449 0.733567
vt 0.765449 0.516433
vt 0.953286 0.952556
vt 0.982583 0.733567
vt 0.984067 0.983336
vt 0.953286 0.796983
vt 0.982583 0.516433
vt 0.984067 0.766203
vt 0.797714 0.952556
vt 0.765449 0.733567
vt 0.766933 0.983336
vt 0.797714 0.796983
vt 0.765449 0.516433
vt 0.766933 0.766203
vt 0.289308 0.796983
vt 0.797714 0.796983
vt 0.308713 0.816389
vt 0.289308 0.952556
vt 0.797714 0.952556
vt 0.308713 0.933151
vt 0.953286 0.796983
vt 0.444881 0.796983
vt 0.425475 0.816388
vt 0.425475 0.933151
vt 0.953286 0.952556
vt 0.444881 0.952556
vt 0.250000 0.369978
vt 0.186297 0.997553
vt 0.185424 0.492283
vt 0.250000 0.490000
vt 0.273407 0.367673
vt 0.185451 0.508072
vt 0.296822 0.485388
vt 0.295914 0.360845
vt 0.185479 0.523862
vt 0.341844 0.471731
vt 0.316656 0.349758
vt 0.185506 0.539652
vt 0.383337 0.449553
vt 0.334837 0.334837
vt 0.185533 0.555441
vt 0.419706 0.419706
vt 0.349758 0.316656
vt 0.185560 0.571231
vt 0.449553 0.383337
vt 0.360845 0.295914
vt 0.185588 0.587021
vt 0.471731 0.341844
vt 0.367673 0.273407
vt 0.185615 0.602811
vt 0.485388 0.296822
vt 0.369978 0.250000
vt 0.185642 0.618600
vt 0.490000 0.250000
vt 0.367673 0.226593
vt 0.185670 0.634390
vt 0.485388 0.203178
vt 0.360845 0.204086
vt 0.185697 0.650180
vt 0.471731 0.158156
vt 0.349758 0.183344
vt 0.185724 0.665969
vt 0.449553 0.116663
vt 0.334837 0.165163
vt 0.185751 0.681759
vt 0.419706 0.080294
vt 0.316656 0.150242
vt 0.185779 0.697549
vt 0.383337 0.050447
vt 0.295914 0.139155
vt 0.185806 0.713338
vt 0.341844 0.028269
vt 0.273407 0.132327
vt 0.185833 0.729128
vt 0.296822 0.014612
vt 0.250000 0.130022
vt 0.185861 0.744918
vt 0.250000 0.010000
vt 0.226593 0.132327
vt 0.185888 0.760707
vt 0.203178 0.014612
vt 0.204086 0.139155
vt 0.185915 0.776497
vt 0.158156 0.028269
vt 0.183344 0.150242
vt 0.185942 0.792287
vt 0.116663 0.050447
vt 0.165163 0.165163
vt 0.185970 0.808076
vt 0.080294 0.080294
vt 0.150242 0.183344
vt 0.185997 0.823866
vt 0.050447 0.116663
vt 0.139155 0.204086
vt 0.186024 0.839656
vt 0.028269 0.158156
vt 0.132327 0.226593
vt 0.186051 0.855446
vt 0.014612 0.203178
vt 0.130022 0.250000
vt 0.186079 0.871235
vt 0.010000 0.250000
vt 0.132327 0.273407
vt 0.186106 0.887025
vt 0.014612 0.296822
vt 0.139155 0.295914
vt 0.186133 0.902815
vt 0.028269 0.341844
vt 0.150242 0.316656
vt 0.186161 0.918604
vt 0.050447 0.383337
vt 0.165163 0.334837
vt 0.186188 0.934394
vt 0.080294 0.419706
vt 0.183344 0.349758
vt 0.186215 0.950184
vt 0.116663 0.449553
vt 0.204086 0.360845
vt 0.186242 0.965973
vt 0.158156 0.471731
vt 0.226593 0.367673
vt 0.186270 0.981763
vt 0.203178 0.485388
vt 0.421001 0.874770
vt 0.003447 0.871551
vt 0.419965 0.885286
vt 0.003420 0.855761
vt 0.419965 0.864253
vt 0.003474 0.887340
vt 0.411916 0.904718
vt 0.003365 0.824182
vt 0.411916 0.844821
vt 0.003529 0.918920
vt 0.405212 0.912887
vt 0.003338 0.808392
vt 0.416897 0.895399
vt 0.003392 0.839971
vt 0.416897 0.854141
vt 0.003502 0.903130
vt 0.397043 0.829948
vt 0.003583 0.950499
vt 0.377611 0.821899
vt 0.003638 0.982079
vt 0.387723 0.824967
vt 0.003611 0.966289
vt 0.356578 0.821899
vt 0.002820 0.508388
vt 0.328977 0.836652
vt 0.002901 0.555757
vt 0.337146 0.829948
vt 0.002874 0.539967
vt 0.346465 0.824967
vt 0.002847 0.524178
vt 0.002792 0.492598
vt 0.367094 0.820863
vt 0.003665 0.997868
vt 0.405212 0.836652
vt 0.003556 0.934709
vt 0.397043 0.919591
vt 0.003311 0.792602
vt 0.377611 0.927640
vt 0.003256 0.761023
vt 0.387723 0.924572
vt 0.003283 0.776813
vt 0.356578 0.927640
vt 0.003202 0.729444
vt 0.337146 0.919591
vt 0.003147 0.697864
vt 0.346465 0.924572
vt 0.003174 0.713654
vt 0.367094 0.928676
vt 0.003229 0.745233
vt 0.322273 0.904718
vt 0.003092 0.666285
vt 0.322273 0.844821
vt 0.002929 0.571547
vt 0.313188 0.874770
vt 0.003011 0.618916
vt 0.314224 0.885286
vt 0.003038 0.634705
vt 0.314224 0.864253
vt 0.002983 0.603126
vt 0.317292 0.895399
vt 0.003065 0.650495
vt 0.317291 0.854141
vt 0.002956 0.587336
vt 0.328977 0.912887
vt 0.003120 0.682074
s 0
f 2/5/1 3/7/1 1/1/1
f 4/8/2 7/11/2 3/7/2
f 8/12/3 5/9/3 7/11/3
f 6/10/4 1/2/4 5/9/4
f 7/11/5 1/3/5 3/6/5
f 8/12/3 11/18/3 6/10/3
f 6/10/4 9/13/4 2/4/4
f 16/23/6 10/16/6 14/21/6
f 4/8/2 12/19/2 8/12/2
f 19/27/2 25/37/2 23/33/2
f 15/22/7 12/19/7 16/23/7
f 14/21/8 9/15/8 13/20/8
f 2/5/1 10/17/1 4/8/1
f 16/23/3 22/31/3 15/22/3
f 15/22/4 18/25/4 13/20/4
f 14/21/2 24/34/2 16/23/2
f 13/20/1 20/28/1 14/21/1
f 13/20/9 11/18/9 15/22/9
f 31/45/10 102/155/10 100/151/10
f 26/38/10 109/169/10 122/196/10
f 19/27/11 18/26/11 17/24/11
f 23/33/12 20/29/12 19/27/12
f 21/30/13 24/35/13 23/33/13
f 17/24/14 22/32/14 21/30/14
f 17/24/1 29/42/1 19/27/1
f 21/30/4 32/46/4 17/24/4
f 28/41/9 32/47/9 27/39/9
f 26/38/7 27/39/7 25/36/7
f 30/44/6 25/36/6 29/43/6
f 31/45/8 29/43/8 32/47/8
f 23/33/3 27/40/3 21/30/3
f 96/143/15 112/177/15 106/164/15
f 38/56/16 110/172/16 111/174/16
f 40/59/17 109/170/17 110/172/17
f 42/62/18 122/197/18 109/170/18
f 44/65/19 127/207/19 122/197/19
f 46/68/20 125/203/20 127/207/20
f 48/71/21 123/199/21 125/203/21
f 50/74/22 124/201/22 123/199/22
f 52/77/23 126/205/23 124/201/23
f 54/80/24 121/195/24 126/205/24
f 56/83/25 128/209/25 121/195/25
f 58/86/26 118/189/26 128/209/26
f 60/89/27 119/191/27 118/189/27
f 62/92/28 117/187/28 119/191/28
f 64/95/29 120/193/29 117/187/29
f 66/98/30 115/183/30 120/193/30
f 68/101/31 116/185/31 115/183/31
f 70/104/32 114/181/32 116/185/32
f 72/107/33 102/156/33 114/181/33
f 74/110/34 100/152/34 102/156/34
f 76/113/35 103/158/35 100/152/35
f 78/116/36 98/148/36 103/158/36
f 80/119/37 97/146/37 98/148/37
f 82/122/38 99/150/38 97/146/38
f 84/125/39 104/160/39 99/150/39
f 86/128/40 101/154/40 104/160/40
f 88/131/41 113/179/41 101/154/41
f 90/134/42 105/162/42 113/179/42
f 92/137/43 107/166/43 105/162/43
f 94/140/44 106/164/44 107/166/44
f 34/50/45 108/168/45 112/175/45
f 36/53/46 111/174/46 108/168/46
f 34/51/47 35/52/47 36/54/47
f 36/54/48 37/55/48 38/57/48
f 40/60/49 37/55/49 39/58/49
f 40/60/50 41/61/50 42/63/50
f 42/63/51 43/64/51 44/66/51
f 46/69/52 43/64/52 45/67/52
f 46/69/53 47/70/53 48/72/53
f 50/75/54 47/70/54 49/73/54
f 50/75/55 51/76/55 52/78/55
f 54/81/56 51/76/56 53/79/56
f 54/81/57 55/82/57 56/84/57
f 56/84/58 57/85/58 58/87/58
f 58/87/59 59/88/59 60/90/59
f 60/90/60 61/91/60 62/93/60
f 62/93/61 63/94/61 64/96/61
f 64/96/62 65/97/62 66/99/62
f 66/99/63 67/100/63 68/102/63
f 70/105/64 67/100/64 69/103/64
f 70/105/65 71/106/65 72/108/65
f 72/108/66 73/109/66 74/111/66
f 74/111/67 75/112/67 76/114/67
f 78/117/68 75/112/68 77/115/68
f 78/117/69 79/118/69 80/120/69
f 82/123/70 79/118/70 81/121/70
f 82/123/71 83/124/71 84/126/71
f 86/129/72 83/124/72 85/127/72
f 86/129/73 87/130/73 88/132/73
f 88/132/74 89/133/74 90/135/74
f 90/135/75 91/136/75 92/138/75
f 92/138/76 93/139/76 94/141/76
f 94/141/77 95/142/77 96/144/77
f 96/144/78 33/48/78 34/51/78
f 39/58/10 87/130/10 71/106/10
f 2/5/1 4/8/1 3/7/1
f 4/8/2 8/12/2 7/11/2
f 8/12/3 6/10/3 5/9/3
f 6/10/4 2/4/4 1/2/4
f 7/11/5 5/9/5 1/3/5
f 8/12/3 12/19/3 11/18/3
f 6/10/4 11/18/4 9/13/4
f 16/23/6 12/19/6 10/16/6
f 4/8/2 10/17/2 12/19/2
f 19/27/2 29/42/2 25/37/2
f 15/22/7 11/18/7 12/19/7
f 14/21/8 10/16/8 9/15/8
f 2/5/1 9/14/1 10/17/1
f 16/23/3 24/34/3 22/31/3
f 15/22/4 22/31/4 18/25/4
f 14/21/2 20/28/2 24/34/2
f 13/20/1 18/25/1 20/28/1
f 13/20/9 9/15/9 11/18/9
f 28/41/10 128/208/10 118/188/10
f 28/41/10 118/188/10 119/190/10
f 101/153/10 113/178/10 30/44/10
f 104/159/10 101/153/10 30/44/10
f 28/41/10 119/190/10 117/186/10
f 28/41/10 117/186/10 120/192/10
f 99/149/10 104/159/10 30/44/10
f 97/145/10 99/149/10 30/44/10
f 31/45/10 28/41/10 120/192/10
f 31/45/10 120/192/10 115/182/10
f 97/145/10 30/44/10 31/45/10
f 98/147/10 97/145/10 31/45/10
f 31/45/10 115/182/10 116/184/10
f 31/45/10 116/184/10 114/180/10
f 103/157/10 98/147/10 31/45/10
f 100/151/10 103/157/10 31/45/10
f 31/45/10 114/180/10 102/155/10
f 30/44/10 113/178/10 105/161/10
f 30/44/10 105/161/10 107/165/10
f 121/194/10 128/208/10 28/41/10
f 126/204/10 121/194/10 28/41/10
f 30/44/10 107/165/10 106/163/10
f 30/44/10 106/163/10 112/176/10
f 124/200/10 126/204/10 28/41/10
f 123/198/10 124/200/10 28/41/10
f 26/38/10 30/44/10 112/176/10
f 26/38/10 112/176/10 108/167/10
f 123/198/10 28/41/10 26/38/10
f 125/202/10 123/198/10 26/38/10
f 26/38/10 108/167/10 111/173/10
f 26/38/10 111/173/10 110/171/10
f 127/206/10 125/202/10 26/38/10
f 122/196/10 127/206/10 26/38/10
f 26/38/10 110/171/10 109/169/10
f 19/27/11 20/29/11 18/26/11
f 23/33/12 24/35/12 20/29/12
f 21/30/13 22/32/13 24/35/13
f 17/24/14 18/26/14 22/32/14
f 17/24/1 32/46/1 29/42/1
f 21/30/4 27/40/4 32/46/4
f 28/41/9 31/45/9 32/47/9
f 26/38/7 28/41/7 27/39/7
f 30/44/6 26/38/6 25/36/6
f 31/45/8 30/44/8 29/43/8
f 23/33/3 25/37/3 27/40/3
f 96/143/15 34/49/15 112/177/15
f 38/56/16 40/59/16 110/172/16
f 40/59/17 42/62/17 109/170/17
f 42/62/18 44/65/18 122/197/18
f 44/65/19 46/68/19 127/207/19
f 46/68/20 48/71/20 125/203/20
f 48/71/21 50/74/21 123/199/21
f 50/74/22 52/77/22 124/201/22
f 52/77/23 54/80/23 126/205/23
f 54/80/24 56/83/24 121/195/24
f 56/83/25 58/86/25 128/209/25
f 58/86/26 60/89/26 118/189/26
f 60/89/27 62/92/27 119/191/27
f 62/92/28 64/95/28 117/187/28
f 64/95/29 66/98/29 120/193/29
f 66/98/30 68/101/30 115/183/30
f 68/101/31 70/104/31 116/185/31
f 70/104/32 72/107/32 114/181/32
f 72/107/33 74/110/33 102/156/33
f 74/110/34 76/113/34 100/152/34
f 76/113/35 78/116/35 103/158/35
f 78/116/36 80/119/36 98/148/36
f 80/119/37 82/122/37 97/146/37
f 82/122/38 84/125/38 99/150/38
f 84/125/39 86/128/39 104/160/39
f 86/128/40 88/131/40 101/154/40
f 88/131/41 90/134/41 113/179/41
f 90/134/42 92/137/42 105/162/42
f 92/137/43 94/140/43 107/166/43
f 94/140/44 96/143/44 106/164/44
f 34/50/45 36/53/45 108/168/45
f 36/53/46 38/56/46 111/174/46
f 34/51/47 33/48/47 35/52/47
f 36/54/48 35/52/48 37/55/48
f 40/60/49 38/57/49 37/55/49
f 40/60/50 39/58/50 41/61/50
f 42/63/51 41/61/51 43/64/51
f 46/69/52 44/66/52 43/64/52
f 46/69/53 45/67/53 47/70/53
f 50/75/54 48/72/54 47/70/54
f 50/75/55 49/73/55 51/76/55
f 54/81/56 52/78/56 51/76/56
f 54/81/57 53/79/57 55/82/57
f 56/84/58 55/82/58 57/85/58
f 58/87/59 57/85/59 59/88/59
f 60/90/60 59/88/60 61/91/60
f 62/93/61 61/91/61 63/94/61
f 64/96/62 63/94/62 65/97/62
f 66/99/63 65/97/63 67/100/63
f 70/105/64 68/102/64 67/100/64
f 70/105/65 69/103/65 71/106/65
f 72/108/66 71/106/66 73/109/66
f 74/111/67 73/109/67 75/112/67
f 78/117/68 76/114/68 75/112/68
f 78/117/69 77/115/69 79/118/69
f 82/123/70 80/120/70 79/118/70
f 82/123/71 81/121/71 83/124/71
f 86/129/72 84/126/72 83/124/72
f 86/129/73 85/127/73 87/130/73
f 88/132/74 87/130/74 89/133/74
f 90/135/75 89/133/75 91/136/75
f 92/138/76 91/136/76 93/139/76
f 94/141/77 93/139/77 95/142/77
f 96/144/78 95/142/78 33/48/78
f 71/106/10 69/103/10 67/100/10
f 67/100/10 65/97/10 63/94/10
f 63/94/10 61/91/10 59/88/10
f 59/88/10 57/85/10 55/82/10
f 55/82/10 53/79/10 51/76/10
f 51/76/10 49/73/10 47/70/10
f 47/70/10 45/67/10 43/64/10
f 43/64/10 41/61/10 39/58/10
f 39/58/10 37/55/10 35/52/10
f 35/52/10 33/48/10 95/142/10
f 95/142/10 93/139/10 91/136/10
f 91/136/10 89/133/10 87/130/10
f 87/130/10 85/127/10 83/124/10
f 83/124/10 81/121/10 79/118/10
f 79/118/10 77/115/10 75/112/10
f 75/112/10 73/109/10 71/106/10
f 71/106/10 67/100/10 63/94/10
f 63/94/10 59/88/10 55/82/10
f 55/82/10 51/76/10 47/70/10
f 47/70/10 43/64/10 39/58/10
f 39/58/10 35/52/10 95/142/10
f 95/142/10 91/136/10 87/130/10
f 87/130/10 83/124/10 79/118/10
f 79/118/10 75/112/10 71/106/10
f 71/106/10 63/94/10 55/82/10
f 55/82/10 47/70/10 39/58/10
f 39/58/10 95/142/10 87/130/10
f 87/130/10 79/118/10 71/106/10
f 71/106/10 55/82/10 39/58/10
