# Blender 3.3.1
# www.blender.org
o Cube
v -1.000000 1.000000 1.000000
v -1.000000 1.000000 -1.000000
v 1.000000 1.000000 1.000000
v 1.000000 1.000000 -1.000000
v 0.698759 1.470318 -0.702009
v -0.722852 1.470318 -0.670818
v -0.761459 1.470318 0.791187
v 0.772981 1.470318 0.762797
v -0.395209 1.453992 0.337422
v -0.326730 1.453992 -0.285716
v 0.281252 1.453992 -0.286329
v 0.246498 1.453992 0.452916
v 0.698759 1.453992 -0.702009
v -0.722852 1.453992 -0.670818
v -0.761459 1.453992 0.791187
v 0.772981 1.453992 0.762797
v 0.772981 1.498873 0.762797
v -0.761459 1.498873 0.791187
v -0.722852 1.498873 -0.670818
v 0.698759 1.498873 -0.702009
v -0.395209 1.911500 0.337422
v -0.326730 1.911500 -0.285716
v 0.281252 1.911500 -0.286329
v 0.246498 1.911500 0.452916
v -0.395209 2.932852 0.337422
v -0.326730 2.932852 -0.285716
v 0.281252 2.932852 -0.286329
v 0.246498 2.932852 0.452916
v -0.068843 3.384663 0.093598
v -0.395209 3.086885 0.337422
v -0.326730 3.086885 -0.285716
v -0.059853 3.384663 0.011794
v -0.030870 3.384663 0.011764
v 0.281252 3.086885 -0.286329
v -0.035003 3.384663 0.099688
v 0.246498 3.086885 0.452916
v -0.875294 -1.000000 0.875294
v -1.000000 -0.875294 1.000000
v -0.875294 -1.000000 -0.875294
v -1.000000 -0.875294 -1.000000
v 1.000000 -0.875294 1.000000
v 0.875294 -1.000000 0.875294
v 0.875294 -1.000000 -0.875294
v 1.000000 -0.875294 -1.000000
v -0.711897 1.711627 0.364907
v -1.000000 1.423524 1.000000
v -0.233476 1.711627 0.711897
v -0.380821 1.711627 -0.711897
v -1.000000 1.423524 -1.000000
v -0.711897 1.711627 -0.210481
v 0.711897 1.711627 0.282293
v 0.325478 1.711627 0.711897
v 1.000000 1.423524 1.000000
v 0.299087 1.711627 -0.711897
v 0.711897 1.711627 -0.309758
v 1.000000 1.423524 -1.000000
v 0.826855 1.711627 1.235767
v 1.232766 1.711627 0.826530
v 0.770382 1.495733 0.760081
v -0.845054 1.711627 1.247257
v -0.758588 1.495704 0.788674
v -1.237302 1.711627 0.824835
v -1.176177 1.711627 -0.761928
v -0.720507 1.495777 -0.668033
v -0.751069 1.711627 -1.151658
v 0.758843 1.711627 -1.166692
v 0.696129 1.495759 -0.699407
v 1.171244 1.711627 -0.764149
v 0.710833 2.081396 -0.587334
v 0.909983 2.081396 -0.227078
v 0.711897 1.883310 -0.309758
v 0.299087 1.883310 -0.711897
v 0.217666 2.081396 -0.909983
v 0.581851 2.081396 -0.712981
v 0.595665 2.081396 0.707717
v 0.240871 2.081396 0.909983
v 0.325478 1.883310 0.711897
v 0.909983 2.081396 0.202777
v 0.716401 2.081396 0.573488
v 0.711897 1.883310 0.282293
v -0.909983 2.081396 -0.138198
v -0.731117 2.081396 -0.540869
v -0.711897 1.883310 -0.210481
v -0.627673 2.081396 -0.697536
v -0.288652 2.081396 -0.909983
v -0.380821 1.883310 -0.711897
v -0.159024 2.081396 0.909983
v -0.550820 2.081396 0.726434
v -0.233476 1.883310 0.711897
v -0.711897 1.883310 0.364907
v -0.700302 2.081396 0.618017
v -0.909983 2.081396 0.275047
v 0.829389 2.081396 0.951926
v 0.826855 1.883310 1.235767
v 0.366113 2.081396 1.040843
v 1.232766 1.883310 0.826530
v 0.956216 2.081396 0.824061
v 1.014637 2.081396 0.312127
v -0.845054 1.883310 1.247257
v -0.830788 2.081396 0.971511
v -0.313853 2.081396 1.045516
v -1.237302 1.883310 0.824835
v -1.021657 2.081396 0.372804
v -0.953346 2.081396 0.839525
v -0.902343 2.081396 -0.744242
v -0.997947 2.081396 -0.242677
v -1.176177 1.883310 -0.761928
v -0.328883 2.081396 -0.957766
v -0.769519 2.081396 -0.866013
v -0.751069 1.883310 -1.151658
v 0.758843 1.883310 -1.166692
v 0.759769 2.081396 -0.888980
v 0.272019 2.081396 -0.963749
v 0.990694 2.081396 -0.306919
v 0.888623 2.081396 -0.763206
v 1.171244 1.883310 -0.764149
vn -0.0185 -0.0000 -0.9998
vn 1.0000 -0.0000 -0.0000
vn -0.0000 -0.0000 -1.0000
vn -0.0000 -1.0000 -0.0000
vn -1.0000 -0.0000 -0.0000
vn -0.9987 -0.0000 0.0506
vn -0.7100 -0.0000 -0.7042
vn -0.1771 -0.0000 0.9842
vn 0.0219 -0.0000 0.9998
vn 0.9997 -0.0000 0.0264
vn 0.7328 -0.0000 -0.6805
vn 0.7475 -0.6632 -0.0380
vn -0.0000 1.0000 -0.0000
vn -0.7487 -0.6627 -0.0196
vn -0.0163 -0.6755 -0.7371
vn -0.0000 -0.0000 1.0000
vn 0.0140 -0.6607 0.7505
vn -0.9940 -0.0000 -0.1092
vn 0.9989 -0.0000 0.0470
vn -0.0010 -0.0000 -1.0000
vn -0.0007 0.7071 -0.7071
vn 0.7063 0.7071 0.0332
vn -0.1253 0.7071 0.6959
vn -0.7029 0.7071 -0.0772
vn 0.7071 -0.7071 -0.0000
vn -0.0000 -0.7071 0.7071
vn -0.0000 -0.7071 -0.7071
vn -0.7071 -0.7071 -0.0000
vn -0.2281 0.9214 0.3145
vn -0.3274 0.9198 -0.2162
vn 0.2850 0.9236 0.2564
vn 0.2671 0.9239 -0.2741
vn -0.3542 0.8667 -0.3513
vn 0.3654 0.8668 -0.3393
vn 0.3357 0.8679 0.3661
vn -0.3463 0.8685 0.3547
vn -0.0000 0.7071 -0.7071
vn -0.7071 0.7071 -0.0000
vn 0.7071 0.7071 -0.0000
vn -0.0000 0.7071 0.7071
vn -0.0029 0.9045 -0.4264
vn 0.4253 0.9049 0.0164
vn 0.0042 0.9076 0.4198
vn -0.4250 0.9051 0.0164
vn 0.9993 -0.0000 0.0385
vn -0.0069 -0.0000 -1.0000
vn 0.6978 -0.0000 -0.7163
vn -0.8345 -0.0000 -0.5510
vn -0.5871 -0.0000 0.8095
vn 0.7435 -0.0000 0.6688
vn 0.0100 -0.0000 1.0000
vn 0.6758 -0.0000 0.7371
vn -0.9993 -0.0000 0.0386
vn -0.6985 -0.0000 0.7156
vn 0.7260 -0.5585 -0.4013
vn 0.3927 -0.5646 -0.7260
vn 0.4139 -0.5492 0.7260
vn 0.7260 -0.5738 0.3791
vn -0.7256 -0.6080 -0.3223
vn -0.4553 -0.5147 -0.7265
vn -0.3400 -0.5980 0.7258
vn -0.7262 -0.5248 0.4440
vn -0.1093 -0.8147 -0.5695
vn -0.5806 -0.8115 -0.0663
vn 0.0828 -0.8114 -0.5786
vn 0.5730 -0.8152 -0.0839
vn 0.5779 -0.8087 0.1101
vn 0.1189 -0.8123 0.5710
vn -0.0887 -0.8108 0.5786
vn -0.5690 -0.8124 0.1273
vn -0.7066 -0.7071 0.0273
vn -0.0049 -0.7071 -0.7071
vn 0.0070 -0.7071 0.7071
vn -0.4939 -0.7071 0.5060
vn -0.5020 -0.7071 -0.4980
vn 0.4778 -0.7071 0.5212
vn 0.5257 -0.7071 0.4729
vn 0.4934 -0.7071 -0.5065
vn -0.4152 -0.7071 0.5724
vn -0.5901 -0.7071 -0.3896
vn 0.5182 -0.7071 -0.4812
vn 0.7066 -0.7071 0.0272
vn 0.7864 -0.6165 -0.0398
vn -0.7879 -0.6155 -0.0208
vn -0.0170 -0.6326 -0.7743
vn 0.0146 -0.6131 0.7898
vn -0.0077 0.9109 -0.4125
vn 0.4118 0.9112 0.0108
vn 0.0090 0.9134 0.4071
vn -0.4112 0.9113 0.0209
vn 0.7435 -0.0000 0.6687
vt 0.625000 0.500000
vt 0.625000 0.750000
vt 0.625000 0.250000
vt 0.625000 1.000000
vt 0.625000 0.000000
vt 0.837345 0.712751
vt 0.659644 0.708852
vt 0.654818 0.526102
vt 0.846623 0.529650
vt 0.700599 0.582822
vt 0.709159 0.660715
vt 0.785156 0.660791
vt 0.780812 0.568385
vt 0.837345 0.712751
vt 0.659644 0.708852
vt 0.654818 0.526102
vt 0.846623 0.529650
vt 0.846623 0.529650
vt 0.654818 0.526102
vt 0.659644 0.708852
vt 0.837345 0.712751
vt 0.700599 0.582822
vt 0.709159 0.660715
vt 0.785156 0.660791
vt 0.780812 0.568385
vt 0.700599 0.582822
vt 0.709159 0.660715
vt 0.785156 0.660791
vt 0.780812 0.568385
vt 0.741395 0.613300
vt 0.700599 0.582822
vt 0.709159 0.660715
vt 0.742518 0.623526
vt 0.746141 0.623529
vt 0.785156 0.660791
vt 0.745625 0.612539
vt 0.780812 0.568385
vt 0.359412 0.515588
vt 0.375000 0.500000
vt 0.390588 0.500000
vt 0.359412 0.734412
vt 0.375000 0.750000
vt 0.390588 0.750000
vt 0.390588 0.250000
vt 0.125000 0.500000
vt 0.140588 0.515588
vt 0.140588 0.734412
vt 0.390588 0.000000
vt 0.390588 1.000000
vt 0.125000 0.750000
vt 0.625000 0.579387
vt 0.661013 0.579387
vt 0.625000 0.500000
vt 0.720816 0.536013
vt 0.630726 0.505013
vt 0.702397 0.750000
vt 0.702397 0.713987
vt 0.625000 0.750000
vt 0.661013 0.651310
vt 0.639500 0.732777
vt 0.838987 0.589714
vt 0.875000 0.589713
vt 0.868637 0.506648
vt 0.790685 0.536013
vt 0.875000 0.500000
vt 0.625000 0.250000
vt 0.787386 0.713987
vt 0.859807 0.734971
vt 0.875000 0.663720
vt 0.838987 0.663720
vt 0.625000 0.000000
vt 0.625000 1.000000
vt 0.875000 0.750000
vt 0.853357 0.470529
vt 0.904096 0.521684
vt 0.846294 0.529990
vt 0.644368 0.469093
vt 0.655172 0.526416
vt 0.595337 0.521895
vt 0.602978 0.720241
vt 0.659937 0.708508
vt 0.656116 0.768957
vt 0.844855 0.770837
vt 0.837020 0.712426
vt 0.896405 0.720519
vt 0.856267 0.680814
vt 0.838854 0.698417
vt 0.863748 0.653385
vt 0.875000 0.663720
vt 0.838987 0.663720
vt 0.859807 0.734971
vt 0.787386 0.713987
vt 0.794622 0.721145
vt 0.777208 0.738748
vt 0.822731 0.714123
vt 0.824458 0.536535
vt 0.797997 0.528373
vt 0.780109 0.511252
vt 0.868637 0.506648
vt 0.790685 0.536013
vt 0.863748 0.599653
vt 0.857439 0.570434
vt 0.839550 0.553314
vt 0.875000 0.589713
vt 0.838987 0.589714
vt 0.655194 0.658222
vt 0.636252 0.642275
vt 0.658610 0.692609
vt 0.639500 0.732777
vt 0.661013 0.651310
vt 0.690482 0.728139
vt 0.671541 0.712192
vt 0.713918 0.738748
vt 0.702397 0.750000
vt 0.702397 0.713987
vt 0.730122 0.511252
vt 0.697456 0.515565
vt 0.681147 0.534196
vt 0.630726 0.505013
vt 0.720816 0.536013
vt 0.625000 0.579387
vt 0.661013 0.579387
vt 0.662462 0.547748
vt 0.652561 0.571988
vt 0.636252 0.590619
vt 0.853674 0.506009
vt 0.853357 0.470529
vt 0.795764 0.494895
vt 0.904096 0.521684
vt 0.869527 0.521992
vt 0.876830 0.585984
vt 0.644368 0.469093
vt 0.646151 0.503561
vt 0.710768 0.494311
vt 0.595337 0.521895
vt 0.622293 0.578399
vt 0.630832 0.520059
vt 0.637207 0.718030
vt 0.625257 0.655335
vt 0.602978 0.720241
vt 0.708890 0.744721
vt 0.653810 0.733252
vt 0.656116 0.768957
vt 0.844855 0.770837
vt 0.844971 0.736122
vt 0.784002 0.745469
vt 0.873837 0.663365
vt 0.861078 0.720401
vt 0.896405 0.720519
s 0
f 8/9/1 15/16/1 7/8/1
f 4/5/2 41/44/2 44/48/2
f 2/2/3 44/49/3 40/43/3
f 37/38/4 43/47/4 42/46/4
f 1/1/5 40/43/5 38/40/5
f 20/21/6 8/9/6 17/18/6
f 108/141/4 73/94/4 85/113/4
f 57/74/7 96/129/7 58/75/7
f 97/130/4 75/96/4 79/103/4
f 1/1/5 49/58/5 2/2/5
f 24/25/8 25/26/8 21/22/8
f 19/20/9 5/6/9 20/21/9
f 4/5/2 53/66/2 3/3/2
f 18/19/10 6/7/10 19/20/10
f 62/79/11 99/132/11 60/77/11
f 20/21/12 59/76/12 67/84/12
f 2/2/3 56/72/3 4/4/3
f 16/17/13 11/12/13 12/13/13
f 6/7/9 13/14/9 5/6/9
f 7/8/10 14/15/10 6/7/10
f 5/6/6 16/17/6 8/9/6
f 18/19/14 64/81/14 61/78/14
f 19/20/15 67/84/15 64/81/15
f 52/64/16 89/120/16 47/54/16
f 17/18/17 61/78/17 59/76/17
f 17/18/1 7/8/1 18/19/1
f 9/10/18 22/23/18 10/11/18
f 10/11/13 14/15/13 9/10/13
f 12/13/8 21/22/8 9/10/8
f 11/12/19 24/25/19 12/13/19
f 10/11/20 23/24/20 11/12/20
f 26/27/20 34/35/20 27/28/20
f 22/23/20 27/28/20 23/24/20
f 21/22/18 26/27/18 22/23/18
f 23/24/19 28/29/19 24/25/19
f 25/26/18 31/32/18 26/27/18
f 29/30/13 33/34/13 32/33/13
f 27/28/19 36/37/19 28/29/19
f 31/32/21 33/34/21 34/35/21
f 34/35/22 35/36/22 36/37/22
f 30/31/23 35/36/23 29/30/23
f 31/32/24 29/30/24 32/33/24
f 28/29/8 30/31/8 25/26/8
f 43/47/25 41/45/25 42/46/25
f 42/46/26 38/39/26 37/38/26
f 39/41/27 44/50/27 43/47/27
f 37/38/28 40/43/28 39/41/28
f 3/3/16 38/40/16 41/44/16
f 45/51/29 46/53/29 47/55/29
f 48/56/30 49/58/30 50/60/30
f 51/62/31 52/63/31 53/65/31
f 54/68/32 55/69/32 56/73/32
f 57/74/33 58/75/33 59/76/33
f 60/77/34 61/78/34 62/79/34
f 63/80/35 64/81/35 65/82/35
f 66/83/36 67/84/36 68/85/36
f 54/67/37 49/58/37 48/57/37
f 50/59/38 46/53/38 45/52/38
f 51/61/39 56/73/39 55/70/39
f 47/54/40 53/65/40 52/64/40
f 57/74/41 61/78/41 60/77/41
f 62/79/42 64/81/42 63/80/42
f 65/82/43 67/84/43 66/83/43
f 68/85/44 59/76/44 58/75/44
f 45/52/5 83/110/5 50/59/5
f 63/80/45 102/135/45 62/79/45
f 60/77/46 94/127/46 57/74/46
f 87/116/4 95/128/4 101/134/4
f 3/3/16 46/53/16 1/1/16
f 54/68/47 71/89/47 55/69/47
f 48/57/3 72/92/3 54/67/3
f 50/60/48 86/114/48 48/56/48
f 47/55/49 90/121/49 45/51/49
f 51/62/50 77/99/50 52/63/50
f 55/70/2 80/105/2 51/61/2
f 91/123/4 100/133/4 104/137/4
f 84/112/4 105/138/4 109/142/4
f 66/83/51 110/143/51 65/82/51
f 81/107/4 103/136/4 106/139/4
f 65/82/52 107/140/52 63/80/52
f 58/75/53 116/149/53 68/85/53
f 114/147/4 78/101/4 70/88/4
f 68/85/54 111/144/54 66/83/54
f 69/86/55 70/88/55 71/90/55
f 72/92/56 73/93/56 74/95/56
f 75/96/57 76/97/57 77/100/57
f 78/101/58 79/102/58 80/105/58
f 81/106/59 82/108/59 83/110/59
f 84/111/60 85/113/60 86/115/60
f 87/116/61 88/117/61 89/120/61
f 90/122/62 91/123/62 92/124/62
f 93/126/63 94/127/63 95/128/63
f 96/129/64 97/130/64 98/131/64
f 99/132/65 100/133/65 101/134/65
f 102/135/66 103/136/66 104/137/66
f 105/138/67 106/139/67 107/140/67
f 108/141/68 109/142/68 110/143/68
f 111/144/69 112/145/69 113/146/69
f 114/147/70 115/148/70 116/149/70
f 92/125/28 83/110/28 90/122/28
f 98/131/71 116/149/71 96/129/71
f 95/128/4 75/96/4 93/126/4
f 101/134/72 94/127/72 99/132/72
f 113/146/73 110/143/73 111/144/73
f 98/131/4 79/103/4 78/101/4
f 76/98/26 89/120/26 77/100/26
f 101/134/4 88/118/4 87/116/4
f 115/148/74 111/144/74 116/149/74
f 93/126/75 96/129/75 94/127/75
f 109/142/76 107/140/76 110/143/76
f 79/103/77 77/100/77 80/105/77
f 74/95/78 71/90/78 72/92/78
f 88/118/79 90/122/79 89/120/79
f 82/108/80 86/115/80 83/110/80
f 104/137/81 99/132/81 102/135/81
f 103/136/4 91/123/4 104/137/4
f 70/88/25 80/105/25 71/90/25
f 85/113/27 72/92/27 86/115/27
f 106/139/82 102/135/82 107/140/82
f 113/146/4 74/95/4 73/94/4
f 114/147/4 69/87/4 115/148/4
f 108/141/4 84/112/4 109/142/4
f 106/139/4 82/108/4 81/107/4
f 112/145/4 69/87/4 74/95/4
f 8/9/1 16/17/1 15/16/1
f 4/5/2 3/3/2 41/44/2
f 2/2/3 4/4/3 44/49/3
f 37/38/4 39/41/4 43/47/4
f 1/1/5 2/2/5 40/43/5
f 20/21/6 5/6/6 8/9/6
f 108/141/4 113/146/4 73/94/4
f 57/74/7 94/127/7 96/129/7
f 97/130/4 93/126/4 75/96/4
f 1/1/5 46/53/5 49/58/5
f 24/25/8 28/29/8 25/26/8
f 19/20/9 6/7/9 5/6/9
f 4/5/2 56/71/2 53/66/2
f 18/19/10 7/8/10 6/7/10
f 62/79/11 102/135/11 99/132/11
f 20/21/83 17/18/83 59/76/83
f 2/2/3 49/58/3 56/72/3
f 9/10/13 15/16/13 16/17/13
f 16/17/13 13/14/13 11/12/13
f 12/13/13 9/10/13 16/17/13
f 6/7/9 14/15/9 13/14/9
f 7/8/10 15/16/10 14/15/10
f 5/6/6 13/14/6 16/17/6
f 18/19/84 19/20/84 64/81/84
f 19/20/85 20/21/85 67/84/85
f 52/64/16 77/100/16 89/120/16
f 17/18/86 18/19/86 61/78/86
f 17/18/1 8/9/1 7/8/1
f 9/10/18 21/22/18 22/23/18
f 10/11/13 11/12/13 13/14/13
f 14/15/13 15/16/13 9/10/13
f 10/11/13 13/14/13 14/15/13
f 12/13/8 24/25/8 21/22/8
f 11/12/19 23/24/19 24/25/19
f 10/11/20 22/23/20 23/24/20
f 26/27/20 31/32/20 34/35/20
f 22/23/20 26/27/20 27/28/20
f 21/22/18 25/26/18 26/27/18
f 23/24/19 27/28/19 28/29/19
f 25/26/18 30/31/18 31/32/18
f 29/30/13 35/36/13 33/34/13
f 27/28/19 34/35/19 36/37/19
f 31/32/21 32/33/21 33/34/21
f 34/35/22 33/34/22 35/36/22
f 30/31/23 36/37/23 35/36/23
f 31/32/24 30/31/24 29/30/24
f 28/29/8 36/37/8 30/31/8
f 43/47/25 44/50/25 41/45/25
f 42/46/26 41/45/26 38/39/26
f 39/41/27 40/42/27 44/50/27
f 37/38/28 38/40/28 40/43/28
f 3/3/16 1/1/16 38/40/16
f 54/67/37 56/73/37 49/58/37
f 50/59/38 49/58/38 46/53/38
f 51/61/39 53/65/39 56/73/39
f 47/54/40 46/53/40 53/65/40
f 57/74/87 59/76/87 61/78/87
f 62/79/88 61/78/88 64/81/88
f 65/82/89 64/81/89 67/84/89
f 68/85/90 67/84/90 59/76/90
f 45/52/5 90/122/5 83/110/5
f 63/80/45 107/140/45 102/135/45
f 60/77/46 99/132/46 94/127/46
f 87/116/4 76/98/4 95/128/4
f 3/3/16 53/66/16 46/53/16
f 54/68/47 72/91/47 71/89/47
f 48/57/3 86/115/3 72/92/3
f 50/60/48 83/109/48 86/114/48
f 47/55/49 89/119/49 90/121/49
f 51/62/91 80/104/91 77/99/91
f 55/70/2 71/90/2 80/105/2
f 91/123/4 88/118/4 100/133/4
f 84/112/4 82/108/4 105/138/4
f 66/83/51 111/144/51 110/143/51
f 81/107/4 92/125/4 103/136/4
f 65/82/52 110/143/52 107/140/52
f 58/75/53 96/129/53 116/149/53
f 114/147/4 98/131/4 78/101/4
f 68/85/54 116/149/54 111/144/54
f 92/125/28 81/107/28 83/110/28
f 98/131/71 114/147/71 116/149/71
f 95/128/4 76/98/4 75/96/4
f 101/134/72 95/128/72 94/127/72
f 113/146/73 108/141/73 110/143/73
f 98/131/4 97/130/4 79/103/4
f 76/98/26 87/116/26 89/120/26
f 101/134/4 100/133/4 88/118/4
f 115/148/74 112/145/74 111/144/74
f 93/126/75 97/130/75 96/129/75
f 109/142/76 105/138/76 107/140/76
f 79/103/77 75/96/77 77/100/77
f 74/95/78 69/87/78 71/90/78
f 88/118/79 91/123/79 90/122/79
f 82/108/80 84/112/80 86/115/80
f 104/137/81 100/133/81 99/132/81
f 103/136/4 92/125/4 91/123/4
f 70/88/25 78/101/25 80/105/25
f 85/113/27 73/94/27 72/92/27
f 106/139/82 103/136/82 102/135/82
f 113/146/4 112/145/4 74/95/4
f 114/147/4 70/88/4 69/87/4
f 108/141/4 85/113/4 84/112/4
f 106/139/4 105/138/4 82/108/4
f 112/145/4 115/148/4 69/87/4
