# Blender 3.3.1
# www.blender.org
o Cube
v -0.994558 1.156267 0.825028
v -0.999728 -0.999023 0.999529
v -0.767275 1.396940 -2.745318
v -0.999902 -0.999698 -1.000098
v 2.327563 1.692111 1.337285
v 1.000060 -0.999799 0.999916
v 1.000122 1.000358 -1.000092
v 2.172621 -1.651832 -0.759310
vn 0.0006 0.9964 -0.0844
vn 0.0204 0.9978 -0.0629
vn 0.1465 0.9863 0.0758
vn 0.0627 -0.0627 -0.9961
vn 0.8240 0.4006 0.4007
vn -0.1369 -0.9811 0.1369
vn -0.1038 -0.9892 0.1038
vn -0.2122 -0.9539 0.2121
vn -0.9990 0.0301 -0.0326
vn -0.9988 0.0332 -0.0362
vn -1.0000 0.0024 0.0001
vn -0.0861 0.0012 0.9963
vn -0.0821 0.0048 0.9966
vn -0.0002 0.0807 0.9967
vn -0.1228 0.9684 -0.2169
vn 0.5317 -0.5317 -0.6593
vn 0.8500 -0.3725 -0.3725
vn -0.0004 -1.0000 0.0003
vn -0.9968 0.0532 -0.0599
vn -0.1438 -0.0529 0.9882
vt 0.625000 0.500000
vt 0.249434 0.558907
vt 0.738164 0.815108
vt 0.406004 0.825960
vt 0.857948 0.355832
vt 0.634301 0.325960
vt 0.035089 0.803838
vt 0.375000 0.250000
vt 0.848647 0.672490
vt 0.625000 1.000000
vt 0.662205 0.223228
vt 0.375000 1.000000
vt 0.454060 0.128666
vt 0.194759 0.977879
s 1
f 1/1/1 7/9/2 3/3/3
f 4/4/4 7/10/4 8/12/4
f 7/11/5 6/8/5 8/13/5
f 6/7/6 4/4/7 8/14/8
f 1/1/9 4/4/10 2/2/11
f 6/8/12 1/1/13 2/2/14
f 1/1/1 5/5/15 7/9/2
f 4/4/16 3/3/16 7/10/16
f 7/11/17 5/6/17 6/8/17
f 6/7/6 2/2/18 4/4/7
f 1/1/9 3/3/19 4/4/10
f 6/8/12 5/6/20 1/1/13
