# Blender 3.3.1
# www.blender.org
o Cube
v -1.000000 1.000000 1.000000
v -1.000000 -1.000000 1.000000
v -1.000000 1.000000 -1.000000
v -1.000000 -1.000000 -1.000000
v 1.000000 1.000000 1.000000
v 1.000000 -1.000000 1.000000
v 1.000000 1.000000 -1.000000
v 1.000000 -1.000000 -1.000000
v -0.748477 2.215064 0.748477
v -0.748477 2.215064 -0.748477
v 0.748477 2.215064 0.748477
v 0.748477 2.215064 -0.748477
v 1.000000 1.924318 -1.000000
v 1.000000 1.924318 1.000000
v -1.000000 1.924318 -1.000000
v -1.000000 1.924318 1.000000
v 1.000000 0.663329 -0.844287
v 0.844287 0.664281 -1.000000
v 1.000000 0.978106 -1.000000
v -1.000000 0.651631 0.844287
v -0.844287 0.650686 1.000000
v -1.000000 0.964374 1.000000
v 0.844287 0.626516 1.000000
v 1.000000 0.627566 0.844287
v 1.000000 0.935747 1.000000
v -1.000000 0.637601 -0.844287
v -1.000000 0.947756 -1.000000
v -0.844287 0.638658 -1.000000
v -0.844287 0.701354 -1.000000
v -1.000000 0.392390 -1.000000
v -1.000000 0.702513 -0.844287
v -1.000000 0.688257 0.844287
v -1.000000 0.375505 1.000000
v -0.844287 0.685953 1.000000
v 0.844287 0.674364 -1.000000
v 1.000000 0.672042 -0.844287
v 1.000000 0.360423 -1.000000
v 1.000000 0.674065 0.844287
v 0.844287 0.675242 1.000000
v 1.000000 0.362819 1.000000
v -0.457590 3.178888 0.457590
v -0.457590 3.178888 -0.457590
v 0.457590 3.178888 0.457590
v 0.457590 3.178888 -0.457590
v -0.457590 4.561242 0.457590
v -0.457590 4.561242 -0.457590
v 0.457590 4.561242 0.457590
v 0.457590 4.561242 -0.457590
v -0.803305 4.925201 0.803305
v -0.803305 4.925201 -0.803305
v 0.803305 4.925201 0.803305
v 0.803305 4.925201 -0.803305
v -0.803305 5.085522 0.803305
v -0.803305 5.085522 -0.803305
v 0.803305 5.085522 0.803305
v 0.803305 5.085522 -0.803305
v -0.315219 5.578166 0.315219
v -0.600297 5.216439 0.600297
v -0.600297 5.216439 -0.600297
v -0.315219 5.578166 -0.315219
v 0.600297 5.216439 0.600297
v 0.315219 5.578166 0.315219
v 0.315219 5.578166 -0.315219
v 0.600297 5.216439 -0.600297
vn 1.0000 -0.0000 -0.0000
vn -0.0000 -0.0000 1.0000
vn -0.0000 0.6543 0.7563
vn -0.0000 -1.0000 -0.0000
vn -0.0000 -0.0000 -1.0000
vn -1.0000 -0.0000 -0.0000
vn 0.6663 -0.3306 -0.6684
vn -0.6681 -0.3316 0.6661
vn 0.6671 -0.3359 0.6649
vn -0.6651 -0.3351 -0.6674
vn -0.6650 0.3351 -0.6675
vn -0.6642 0.3332 0.6692
vn 0.6695 0.3320 -0.6645
vn 0.6680 0.3329 0.6655
vn -0.7071 -0.0000 0.7071
vn 0.7071 -0.0000 0.7071
vn 0.7071 -0.0000 -0.7071
vn -0.7071 -0.0000 -0.7071
vn 0.9573 0.2889 -0.0000
vn 0.7563 0.6543 -0.0000
vn -0.0000 0.6543 -0.7563
vn -0.7563 0.6543 -0.0000
vn -0.0000 0.2889 -0.9573
vn -0.9573 0.2889 -0.0000
vn -0.0000 0.2889 0.9573
vn 0.7250 -0.6887 -0.0000
vn -0.0000 -0.6887 0.7250
vn -0.7250 -0.6887 -0.0000
vn -0.0000 -0.6887 -0.7250
vn -0.5420 0.8404 -0.0000
vn -0.0000 1.0000 -0.0000
vn -0.0000 0.8404 -0.5420
vn 0.5420 0.8404 -0.0000
vn -0.0000 0.6190 0.7854
vn -0.0000 0.6190 -0.7854
vn 0.7854 0.6190 -0.0000
vn -0.7854 0.6190 -0.0000
vn -0.0000 0.8404 0.5420
vt 0.625000 0.500000
vt 0.375000 0.500000
vt 0.625000 0.750000
vt 0.375000 0.750000
vt 0.625000 0.250000
vt 0.125000 0.500000
vt 0.375000 0.250000
vt 0.622539 1.000000
vt 0.625000 0.000000
vt 0.375000 1.000000
vt 0.375000 0.000000
vt 0.125000 0.750000
vt 0.625000 0.500000
vt 0.625000 0.750000
vt 0.625000 0.250000
vt 0.625000 0.000000
vt 0.622539 1.000000
vt 0.622539 1.000000
vt 0.625000 0.000000
vt 0.625000 0.250000
vt 0.625000 0.750000
vt 0.625000 0.500000
vt 0.582916 0.019464
vt 0.583035 0.000000
vt 0.583035 0.980536
vt 0.602797 0.000000
vt 0.622263 1.000000
vt 0.619802 1.000000
vt 0.622263 0.000000
vt 0.581454 0.519464
vt 0.581336 0.480536
vt 0.620547 0.500000
vt 0.578315 0.269464
vt 0.578446 0.230536
vt 0.616968 0.250000
vt 0.579700 0.730536
vt 0.618470 0.750000
vt 0.579832 0.769464
vt 0.587669 0.769464
vt 0.549049 0.750000
vt 0.587814 0.730536
vt 0.586032 0.519464
vt 0.546938 0.500000
vt 0.585744 0.480536
vt 0.584296 0.000000
vt 0.584296 0.980536
vt 0.584005 0.019464
vt 0.564518 0.000000
vt 0.545053 1.000000
vt 0.545053 0.000000
vt 0.584258 0.230536
vt 0.584405 0.269464
vt 0.545352 0.250000
vt 0.625000 0.500000
vt 0.625000 0.750000
vt 0.625000 0.250000
vt 0.622539 1.000000
vt 0.625000 0.000000
vt 0.625000 0.500000
vt 0.625000 0.750000
vt 0.625000 0.250000
vt 0.622539 1.000000
vt 0.625000 0.000000
vt 0.625000 0.500000
vt 0.625000 0.750000
vt 0.625000 0.250000
vt 0.622539 1.000000
vt 0.625000 0.000000
vt 0.625000 0.500000
vt 0.625000 0.750000
vt 0.625000 0.250000
vt 0.622539 1.000000
vt 0.625000 0.000000
vt 0.696160 0.571160
vt 0.625000 0.500000
vt 0.625000 0.750000
vt 0.696160 0.678840
vt 0.875000 0.500000
vt 0.625000 0.250000
vt 0.803840 0.571160
vt 0.803840 0.678840
vt 0.622539 1.000000
vt 0.625000 0.000000
vt 0.875000 0.750000
s 0
f 7/9/1 14/20/1 5/5/1
f 40/53/2 2/2/2 6/7/2
f 14/20/3 9/13/3 16/22/3
f 2/2/4 8/12/4 6/6/4
f 4/4/5 37/49/5 8/10/5
f 37/50/1 6/7/1 8/11/1
f 32/42/1 26/36/1 31/41/1
f 38/51/6 17/23/6 24/34/6
f 39/52/5 21/31/5 34/44/5
f 35/46/2 28/38/2 18/25/2
f 22/32/6 3/3/6 27/37/6
f 22/32/2 5/5/2 1/1/2
f 33/43/6 4/4/6 2/2/6
f 19/28/5 3/3/5 7/8/5
f 17/23/7 18/24/7 19/26/7
f 20/30/8 21/31/8 22/32/8
f 23/33/9 24/34/9 25/35/9
f 26/36/10 27/37/10 28/38/10
f 29/39/11 30/40/11 31/41/11
f 32/42/12 33/43/12 34/44/12
f 35/45/13 36/47/13 37/48/13
f 38/51/14 39/52/14 40/53/14
f 18/24/15 36/47/15 35/45/15
f 20/30/6 27/37/6 26/36/6
f 18/25/5 27/37/5 19/27/5
f 21/31/2 25/35/2 22/32/2
f 17/23/1 25/35/1 24/34/1
f 29/39/16 26/36/16 28/38/16
f 20/30/17 34/44/17 21/31/17
f 23/33/18 38/51/18 24/34/18
f 33/43/2 39/52/2 34/44/2
f 40/53/1 36/47/1 38/51/1
f 30/40/6 32/42/6 31/41/6
f 30/40/5 35/46/5 37/49/5
f 19/29/1 5/5/1 25/35/1
f 1/1/6 15/21/6 3/3/6
f 5/5/2 16/22/2 1/1/2
f 3/3/5 13/18/5 7/8/5
f 12/16/19 43/56/19 11/15/19
f 13/19/20 11/15/20 14/20/20
f 15/21/21 12/17/21 13/18/21
f 16/22/22 10/14/22 15/21/22
f 43/56/2 45/59/2 41/54/2
f 10/14/23 44/57/23 12/17/23
f 9/13/24 42/55/24 10/14/24
f 11/15/25 41/54/25 9/13/25
f 48/63/26 51/66/26 47/61/26
f 42/55/5 48/62/5 44/57/5
f 41/54/6 46/60/6 42/55/6
f 44/58/1 47/61/1 43/56/1
f 49/64/6 54/70/6 50/65/6
f 47/61/27 49/64/27 45/59/27
f 45/59/28 50/65/28 46/60/28
f 46/60/29 52/67/29 48/62/29
f 50/65/5 56/72/5 52/67/5
f 52/68/1 55/71/1 51/66/1
f 51/66/2 53/69/2 49/64/2
f 53/69/30 59/76/30 54/70/30
f 62/80/31 60/77/31 57/74/31
f 54/70/32 64/82/32 56/72/32
f 56/73/33 61/79/33 55/71/33
f 57/74/34 61/78/34 62/80/34
f 63/81/35 59/76/35 60/77/35
f 62/80/36 64/84/36 63/81/36
f 60/77/37 58/75/37 57/74/37
f 55/71/38 58/75/38 53/69/38
f 7/9/1 13/19/1 14/20/1
f 40/53/2 33/43/2 2/2/2
f 14/20/3 11/15/3 9/13/3
f 2/2/4 4/4/4 8/12/4
f 4/4/5 30/40/5 37/49/5
f 37/50/1 40/53/1 6/7/1
f 32/42/1 20/30/1 26/36/1
f 38/51/6 36/47/6 17/23/6
f 39/52/5 23/33/5 21/31/5
f 35/46/2 29/39/2 28/38/2
f 22/32/6 1/1/6 3/3/6
f 22/32/2 25/35/2 5/5/2
f 33/43/6 30/40/6 4/4/6
f 19/28/5 27/37/5 3/3/5
f 18/24/15 17/23/15 36/47/15
f 20/30/6 22/32/6 27/37/6
f 18/25/5 28/38/5 27/37/5
f 21/31/2 23/33/2 25/35/2
f 17/23/1 19/29/1 25/35/1
f 29/39/16 31/41/16 26/36/16
f 20/30/17 32/42/17 34/44/17
f 23/33/18 39/52/18 38/51/18
f 33/43/2 40/53/2 39/52/2
f 40/53/1 37/50/1 36/47/1
f 30/40/6 33/43/6 32/42/6
f 30/40/5 29/39/5 35/46/5
f 19/29/1 7/9/1 5/5/1
f 1/1/6 16/22/6 15/21/6
f 5/5/2 14/20/2 16/22/2
f 3/3/5 15/21/5 13/18/5
f 12/16/19 44/58/19 43/56/19
f 13/19/20 12/16/20 11/15/20
f 15/21/21 10/14/21 12/17/21
f 16/22/22 9/13/22 10/14/22
f 43/56/2 47/61/2 45/59/2
f 10/14/23 42/55/23 44/57/23
f 9/13/24 41/54/24 42/55/24
f 11/15/25 43/56/25 41/54/25
f 48/63/26 52/68/26 51/66/26
f 42/55/5 46/60/5 48/62/5
f 41/54/6 45/59/6 46/60/6
f 44/58/1 48/63/1 47/61/1
f 49/64/6 53/69/6 54/70/6
f 47/61/27 51/66/27 49/64/27
f 45/59/28 49/64/28 50/65/28
f 46/60/29 50/65/29 52/67/29
f 50/65/5 54/70/5 56/72/5
f 52/68/1 56/73/1 55/71/1
f 51/66/2 55/71/2 53/69/2
f 53/69/30 58/75/30 59/76/30
f 62/80/31 63/81/31 60/77/31
f 54/70/32 59/76/32 64/82/32
f 56/73/33 64/83/33 61/79/33
f 57/74/34 58/75/34 61/78/34
f 63/81/35 64/84/35 59/76/35
f 62/80/36 61/78/36 64/84/36
f 60/77/37 59/76/37 58/75/37
f 55/71/38 61/79/38 58/75/38
