# Blender 3.3.1
# www.blender.org
o Cube
v -0.500000 0.500000 0.500000
v -0.500000 -0.500000 0.500000
v -0.500000 0.500000 -0.500000
v -0.500000 -0.500000 -0.500000
v 0.500000 0.500000 0.500000
v 0.500000 -0.500000 0.500000
v 0.500000 0.500000 -0.500000
v 0.500000 -0.500000 -0.500000
v -0.167101 0.888098 0.167101
v -0.167101 0.888098 -0.167101
v 0.167101 0.888098 0.167101
v 0.167101 0.888098 -0.167101
v -0.309270 1.020998 0.309270
v -0.309270 1.020998 -0.309270
v 0.309270 1.020998 0.309270
v 0.309270 1.020998 -0.309270
v -0.309270 1.572430 0.309270
v -0.309270 1.572430 -0.309270
v 0.309270 1.572430 0.309270
v 0.309270 1.572430 -0.309270
v -0.113416 1.751807 0.113416
v -0.113416 1.751807 -0.113416
v 0.113416 1.751807 0.113416
v 0.113416 1.751807 -0.113416
v -0.651460 1.822363 0.651460
v -0.651460 1.822363 -0.651460
v 0.651460 1.822363 0.651460
v 0.651460 1.822363 -0.651460
v -0.175577 2.048244 0.175577
v -0.175577 2.048244 -0.175577
v 0.175577 2.048244 0.175577
v 0.175577 2.048244 -0.175577
vn -0.0000 0.6511 -0.7590
vn -0.0000 -0.0000 -1.0000
vn 1.0000 -0.0000 -0.0000
vn -0.0000 -1.0000 -0.0000
vn -1.0000 -0.0000 -0.0000
vn -0.0000 -0.0000 1.0000
vn -0.0000 -0.7305 0.6829
vn 0.7590 0.6511 -0.0000
vn -0.7590 0.6511 -0.0000
vn -0.0000 0.6511 0.7590
vn -0.6829 -0.7305 -0.0000
vn 0.6829 -0.7305 -0.0000
vn -0.0000 -0.7305 -0.6829
vn 0.6754 0.7374 -0.0000
vn -0.0000 -0.9915 0.1300
vn -0.0000 0.7374 -0.6754
vn -0.0000 0.7374 0.6754
vn -0.6754 0.7374 -0.0000
vn 0.4288 0.9034 -0.0000
vn -0.1300 -0.9915 -0.0000
vn 0.1300 -0.9915 -0.0000
vn -0.0000 -0.9915 -0.1300
vn -0.0000 1.0000 -0.0000
vn -0.0000 0.9034 -0.4288
vn -0.0000 0.9034 0.4288
vn -0.4288 0.9034 -0.0000
vt 0.625000 0.500000
vt 0.375000 0.500000
vt 0.625000 0.750000
vt 0.375000 0.750000
vt 0.625000 0.250000
vt 0.125000 0.500000
vt 0.375000 0.250000
vt 0.625000 1.000000
vt 0.625000 0.000000
vt 0.375000 0.000000
vt 0.375000 1.000000
vt 0.125000 0.750000
vt 0.625000 0.500000
vt 0.625000 0.750000
vt 0.625000 0.250000
vt 0.625000 1.000000
vt 0.625000 0.000000
vt 0.625000 0.500000
vt 0.625000 0.750000
vt 0.880007 0.769377
vt 0.625000 0.250000
vt 0.876132 1.000000
vt 0.625000 1.000000
vt 0.625000 0.000000
vt 0.625000 0.500000
vt 0.642052 0.769377
vt 0.625000 0.750000
vt 0.625000 0.250000
vt 0.625000 1.000000
vt 0.625000 0.000000
vt 0.642052 1.000000
vt 0.625000 0.500000
vt 0.625000 0.750000
vt 0.625000 0.250000
vt 0.625000 1.000000
vt 0.625000 0.000000
vt 0.625000 0.500000
vt 0.625000 0.750000
vt 0.625000 0.250000
vt 0.625000 0.000000
vt 0.625000 1.000000
vt 0.625000 0.500000
vt 0.625000 0.750000
vt 0.875000 0.500000
vt 0.625000 0.250000
vt 0.625000 0.000000
vt 0.875000 0.750000
vt 0.625000 1.000000
s 0
f 3/3/1 12/16/1 7/8/1
f 3/3/2 8/11/2 4/4/2
f 7/9/3 6/7/3 8/10/3
f 2/2/4 8/12/4 6/6/4
f 1/1/5 4/4/5 2/2/5
f 5/5/6 2/2/6 6/7/6
f 11/15/7 13/18/7 9/13/7
f 7/9/8 11/15/8 5/5/8
f 1/1/9 10/14/9 3/3/9
f 5/5/10 9/13/10 1/1/10
f 13/18/5 18/27/5 14/19/5
f 9/13/11 14/19/11 10/14/11
f 12/17/12 15/21/12 11/15/12
f 10/14/13 16/23/13 12/16/13
f 20/30/14 23/34/14 19/28/14
f 16/24/3 19/28/3 15/21/3
f 14/20/2 20/31/2 16/22/2
f 15/21/6 17/25/6 13/18/6
f 23/34/15 25/37/15 21/32/15
f 18/27/16 24/35/16 20/29/16
f 19/28/17 21/32/17 17/25/17
f 17/25/18 22/33/18 18/27/18
f 28/40/19 31/45/19 27/39/19
f 21/32/20 26/38/20 22/33/20
f 24/36/21 27/39/21 23/34/21
f 22/33/22 28/41/22 24/35/22
f 31/44/23 30/43/23 29/42/23
f 26/38/24 32/48/24 28/41/24
f 27/39/25 29/42/25 25/37/25
f 25/37/26 30/43/26 26/38/26
f 3/3/1 10/14/1 12/16/1
f 3/3/2 7/8/2 8/11/2
f 7/9/3 5/5/3 6/7/3
f 2/2/4 4/4/4 8/12/4
f 1/1/5 3/3/5 4/4/5
f 5/5/6 1/1/6 2/2/6
f 11/15/7 15/21/7 13/18/7
f 7/9/8 12/17/8 11/15/8
f 1/1/9 9/13/9 10/14/9
f 5/5/10 11/15/10 9/13/10
f 13/18/5 17/25/5 18/27/5
f 9/13/11 13/18/11 14/19/11
f 12/17/12 16/24/12 15/21/12
f 10/14/13 14/19/13 16/23/13
f 20/30/14 24/36/14 23/34/14
f 16/24/3 20/30/3 19/28/3
f 14/20/2 18/26/2 20/31/2
f 15/21/6 19/28/6 17/25/6
f 23/34/15 27/39/15 25/37/15
f 18/27/16 22/33/16 24/35/16
f 19/28/17 23/34/17 21/32/17
f 17/25/18 21/32/18 22/33/18
f 28/40/19 32/46/19 31/45/19
f 21/32/20 25/37/20 26/38/20
f 24/36/21 28/40/21 27/39/21
f 22/33/22 26/38/22 28/41/22
f 31/44/23 32/47/23 30/43/23
f 26/38/24 30/43/24 32/48/24
f 27/39/25 31/45/25 29/42/25
f 25/37/26 29/42/26 30/43/26
